<svg id="visual" viewBox="0 0 900 600" width="900" height="600" xmlns="http://www.w3.org/2000/svg" xmlns:xlink="http://www.w3.org/1999/xlink" version="1.1"><rect x="0" y="0" width="900" height="600" fill="#001220"></rect><path d="M0 430L21.5 422.7C43 415.3 86 400.7 128.8 394C171.7 387.3 214.3 388.7 257.2 394C300 399.3 343 408.7 385.8 417.8C428.7 427 471.3 436 514.2 432.7C557 429.3 600 413.7 642.8 409.7C685.7 405.7 728.3 413.3 771.2 417.5C814 421.7 857 422.3 878.5 422.7L900 423L900 601L878.5 601C857 601 814 601 771.2 601C728.3 601 685.7 601 642.8 601C600 601 557 601 514.2 601C471.3 601 428.7 601 385.8 601C343 601 300 601 257.2 601C214.3 601 171.7 601 128.8 601C86 601 43 601 21.5 601L0 601Z" fill="#a43e0e"></path><path d="M0 421L21.5 430.5C43 440 86 459 128.8 457.5C171.7 456 214.3 434 257.2 433.7C300 433.3 343 454.7 385.8 461.5C428.7 468.3 471.3 460.7 514.2 461.2C557 461.7 600 470.3 642.8 468.5C685.7 466.7 728.3 454.3 771.2 448.5C814 442.7 857 443.3 878.5 443.7L900 444L900 601L878.5 601C857 601 814 601 771.2 601C728.3 601 685.7 601 642.8 601C600 601 557 601 514.2 601C471.3 601 428.7 601 385.8 601C343 601 300 601 257.2 601C214.3 601 171.7 601 128.8 601C86 601 43 601 21.5 601L0 601Z" fill="#b64b1a"></path><path d="M0 462L21.5 459C43 456 86 450 128.8 452.8C171.7 455.7 214.3 467.3 257.2 470.7C300 474 343 469 385.8 471.8C428.7 474.7 471.3 485.3 514.2 481.5C557 477.7 600 459.3 642.8 454.2C685.7 449 728.3 457 771.2 465.2C814 473.3 857 481.7 878.5 485.8L900 490L900 601L878.5 601C857 601 814 601 771.2 601C728.3 601 685.7 601 642.8 601C600 601 557 601 514.2 601C471.3 601 428.7 601 385.8 601C343 601 300 601 257.2 601C214.3 601 171.7 601 128.8 601C86 601 43 601 21.5 601L0 601Z" fill="#c95825"></path><path d="M0 512L21.5 511.3C43 510.7 86 509.3 128.8 507.7C171.7 506 214.3 504 257.2 508.5C300 513 343 524 385.8 522.7C428.7 521.3 471.3 507.7 514.2 508C557 508.3 600 522.7 642.8 526C685.7 529.3 728.3 521.7 771.2 521.5C814 521.3 857 528.7 878.5 532.3L900 536L900 601L878.5 601C857 601 814 601 771.2 601C728.3 601 685.7 601 642.8 601C600 601 557 601 514.2 601C471.3 601 428.7 601 385.8 601C343 601 300 601 257.2 601C214.3 601 171.7 601 128.8 601C86 601 43 601 21.5 601L0 601Z" fill="#db6530"></path><path d="M0 559L21.5 559.8C43 560.7 86 562.3 128.8 561.5C171.7 560.7 214.3 557.3 257.2 552.2C300 547 343 540 385.8 536.3C428.7 532.7 471.3 532.3 514.2 532.2C557 532 600 532 642.8 535.7C685.7 539.3 728.3 546.7 771.2 550C814 553.3 857 552.7 878.5 552.3L900 552L900 601L878.5 601C857 601 814 601 771.2 601C728.3 601 685.7 601 642.8 601C600 601 557 601 514.2 601C471.3 601 428.7 601 385.8 601C343 601 300 601 257.2 601C214.3 601 171.7 601 128.8 601C86 601 43 601 21.5 601L0 601Z" fill="#ee733c"></path></svg>